<svg xmlns="http://www.w3.org/2000/svg" version="1.1" xmlns:xlink="http://www.w3.org/1999/xlink" xmlns:svgjs="http://svgjs.dev/svgjs" viewBox="0 0 7.904785817394254 2.750010252908042"><g transform="matrix(1,0,0,1,0.3776414772148824,0.42344221319316)"><rect width="7.904785817394254" height="2.750010252908042" x="-0.37764147721488245" y="-0.42344221319316006" fill="#000000"></rect><g><path d=" M 0.8355 0.537 C 0.747 0.5265 0.657 0.4515 0.657 0.3315 C 0.657 0.15600000000000003 0.843 0.03750000000000009 1.0815000000000001 0.03750000000000009 C 1.2465 0.03750000000000009 1.4085 0.09900000000000009 1.542 0.1785 C 1.299 0.25650000000000006 1.1295 0.48750000000000004 0.9735 0.7230000000000001 C 0.852 0.7005000000000001 0.72 0.6765000000000001 0.594 0.6765000000000001 C 0.28500000000000003 0.6765000000000001 0 0.798 0 1.0935000000000001 C 0 1.266 0.135 1.3845 0.3015 1.3845 C 0.5985 1.3845 0.7905 1.0710000000000002 0.993 0.7665000000000001 C 1.083 0.783 1.1685 0.7965 1.2435 0.7965 C 1.281 0.7965 1.3125 0.795 1.3425 0.789 C 1.317 0.8625 1.302 0.9345000000000001 1.302 0.9960000000000001 C 1.302 1.104 1.3545 1.1745 1.4175 1.203 C 1.428 1.2075 1.4325 1.209 1.44 1.209 C 1.4475 1.209 1.452 1.206 1.452 1.2015 C 1.452 1.197 1.449 1.1955 1.4385000000000001 1.1895 C 1.3845 1.1595 1.347 1.0905 1.347 0.9990000000000001 C 1.347 0.9315 1.3635 0.8550000000000001 1.3920000000000001 0.777 C 1.437 0.762 1.4745 0.7410000000000001 1.5150000000000001 0.7110000000000001 C 1.5255 0.7035 1.53 0.6990000000000001 1.53 0.6915 C 1.53 0.687 1.5255 0.6825000000000001 1.5210000000000001 0.6825000000000001 C 1.5150000000000001 0.6825000000000001 1.512 0.6855 1.5030000000000001 0.6915 C 1.47 0.7125000000000001 1.44 0.7290000000000001 1.407 0.7395 C 1.4865 0.54 1.629 0.3285 1.7355 0.20100000000000007 C 1.743 0.19200000000000006 1.752 0.1815 1.752 0.1695000000000001 C 1.752 0.1605000000000001 1.7415 0.14850000000000008 1.7235 0.14850000000000008 C 1.6725 0.14850000000000008 1.6245 0.15600000000000003 1.5795000000000001 0.1665000000000001 C 1.437 0.06900000000000006 1.2615 0 1.0815000000000001 0 C 0.8055 0 0.6105 0.13650000000000007 0.6105 0.3315 C 0.6105 0.47250000000000003 0.735 0.5595000000000001 0.8280000000000001 0.5595000000000001 C 0.8415 0.5595000000000001 0.849 0.555 0.849 0.546 C 0.849 0.5415000000000001 0.846 0.5385 0.8355 0.537 Z M 0.3015 1.347 C 0.1515 1.347 0.0405 1.2435 0.0405 1.0935000000000001 C 0.0405 0.8220000000000001 0.306 0.7155 0.5955 0.7155 C 0.7155 0.7155 0.837 0.738 0.9510000000000001 0.7590000000000001 C 0.7575000000000001 1.0545 0.579 1.347 0.3015 1.347 Z M 1.2525 0.7605000000000001 C 1.185 0.7605000000000001 1.104 0.7470000000000001 1.0170000000000001 0.732 C 1.176 0.492 1.3455 0.264 1.578 0.1995 L 1.599 0.21300000000000008 C 1.608 0.21900000000000008 1.6125 0.2220000000000001 1.617 0.2220000000000001 C 1.6215 0.2220000000000001 1.629 0.21150000000000002 1.629 0.20700000000000007 C 1.629 0.2025 1.6245 0.19800000000000006 1.62 0.19500000000000006 L 1.614 0.19200000000000006 C 1.6455 0.18600000000000005 1.677 0.1815 1.7115 0.1815 C 1.602 0.3015 1.4385000000000001 0.5355000000000001 1.356 0.7530000000000001 C 1.3245 0.7590000000000001 1.29 0.7605000000000001 1.2525 0.7605000000000001 Z M 1.8689018554687502 0.894 C 1.8689018554687502 0.885 1.8689018554687502 0.8760000000000001 1.8704018554687503 0.8640000000000001 C 2.0699018554687503 0.675 2.2799018554687502 0.39150000000000007 2.2799018554687502 0.29100000000000004 C 2.2799018554687502 0.24450000000000005 2.25140185546875 0.22050000000000003 2.21390185546875 0.22050000000000003 C 2.09540185546875 0.22050000000000003 1.9604018554687501 0.45600000000000007 1.8854018554687502 0.66 C 1.8749018554687502 0.6480000000000001 1.8509018554687502 0.6285000000000001 1.8044018554687502 0.6285000000000001 C 1.6859018554687502 0.6285000000000001 1.49540185546875 0.7995000000000001 1.49540185546875 0.9465 C 1.49540185546875 1.0050000000000001 1.5389018554687501 1.0455 1.58990185546875 1.0455 C 1.6454018554687502 1.0455 1.7339018554687502 0.9870000000000001 1.82990185546875 0.9015000000000001 C 1.8314018554687501 0.9795 1.8749018554687502 1.0125 1.9334018554687502 1.0125 C 2.0459018554687503 1.0125 2.18240185546875 0.8550000000000001 2.18240185546875 0.8550000000000001 C 2.18240185546875 0.8550000000000001 2.18990185546875 0.8460000000000001 2.18990185546875 0.8400000000000001 C 2.18990185546875 0.8325 2.18390185546875 0.8265 2.1749018554687503 0.8265 C 2.16890185546875 0.8265 2.16140185546875 0.8355 2.16140185546875 0.8355 C 2.16140185546875 0.8355 2.04140185546875 0.9780000000000001 1.93640185546875 0.9780000000000001 C 1.9049018554687502 0.9780000000000001 1.8689018554687502 0.9615 1.8689018554687502 0.894 Z M 1.5929018554687502 1.0110000000000001 C 1.56140185546875 1.0110000000000001 1.5344018554687502 0.9885 1.5344018554687502 0.9510000000000001 C 1.5344018554687502 0.8220000000000001 1.7084018554687501 0.66 1.8104018554687502 0.66 C 1.8494018554687501 0.66 1.86590185546875 0.678 1.8749018554687502 0.6930000000000001 C 1.85390185546875 0.7545000000000001 1.8389018554687502 0.8115000000000001 1.8329018554687502 0.8580000000000001 C 1.73540185546875 0.9480000000000001 1.6454018554687502 1.0110000000000001 1.5929018554687502 1.0110000000000001 Z M 2.2109018554687503 0.255 C 2.23040185546875 0.255 2.2454018554687503 0.267 2.2454018554687503 0.28800000000000003 C 2.2454018554687503 0.38250000000000006 2.0594018554687503 0.633 1.8794018554687502 0.8130000000000001 C 1.92440185546875 0.6165 2.08940185546875 0.255 2.2109018554687503 0.255 Z M 2.4943623046875003 0.8550000000000001 C 2.4943623046875003 0.8550000000000001 2.5018623046875 0.8460000000000001 2.5018623046875 0.8400000000000001 C 2.5018623046875 0.8325 2.4958623046875004 0.8265 2.4868623046875005 0.8265 C 2.4808623046875002 0.8265 2.4733623046875004 0.8355 2.4733623046875004 0.8355 C 2.4733623046875004 0.8355 2.3353623046875 0.9870000000000001 2.2453623046875 0.9870000000000001 C 2.2108623046875002 0.9870000000000001 2.1883623046875003 0.9660000000000001 2.1883623046875003 0.9315 C 2.1883623046875003 0.8445 2.3023623046875 0.7035 2.3383623046875 0.66 C 2.3443623046875004 0.6525000000000001 2.3458623046875005 0.6465000000000001 2.3458623046875005 0.6435000000000001 C 2.3458623046875005 0.6345000000000001 2.3383623046875 0.627 2.3278623046875 0.627 C 2.3038623046875 0.627 2.1478623046875 0.8295 2.1478623046875 0.9315 C 2.1478623046875 0.9855 2.1838623046875 1.0185 2.2348623046875002 1.0185 C 2.3503623046875 1.0185 2.4943623046875003 0.8550000000000001 2.4943623046875003 0.8550000000000001 Z M 2.4628623046875004 0.42000000000000004 C 2.4418623046875 0.42000000000000004 2.4178623046875 0.45300000000000007 2.4178623046875 0.47850000000000004 C 2.4178623046875 0.49350000000000005 2.4283623046875 0.501 2.4418623046875 0.501 C 2.4658623046875 0.501 2.4868623046875005 0.4620000000000001 2.4868623046875005 0.44100000000000006 C 2.4868623046875005 0.4275 2.4763623046875 0.42000000000000004 2.4628623046875004 0.42000000000000004 Z M 3.3838593750000006 0.20700000000000007 C 3.2938593750000003 0.20700000000000007 2.812359375 0.7395 2.812359375 1.0170000000000001 C 2.812359375 1.038 2.8258593750000003 1.0515 2.8393593750000004 1.0515 C 2.846859375 1.0515 2.8498593750000003 1.0470000000000002 2.8498593750000003 1.038 C 2.8498593750000003 0.7755000000000001 3.2323593750000006 0.32400000000000007 3.3808593750000004 0.249 C 3.3988593750000002 0.24 3.4033593750000004 0.2340000000000001 3.4033593750000004 0.2250000000000001 C 3.4033593750000004 0.21600000000000008 3.3943593750000005 0.20700000000000007 3.3838593750000006 0.20700000000000007 Z M 3.3643593750000003 1.056 C 3.385359375 1.056 3.3928593750000005 1.0530000000000002 3.3928593750000005 1.044 C 3.3928593750000005 1.0350000000000001 3.3808593750000004 1.0305 3.3643593750000003 1.0305 C 3.1168593750000007 1.0305 2.9023593750000005 1.098 2.9023593750000005 1.245 C 2.9023593750000005 1.314 2.9683593750000004 1.3815 3.0988593750000004 1.3815 C 3.3238593750000005 1.3815 3.5458593750000005 1.2135 3.5458593750000005 0.9990000000000001 C 3.5458593750000005 0.8340000000000001 3.3688593750000004 0.7815000000000001 3.3688593750000004 0.7815000000000001 C 3.4423593750000006 0.768 3.8248593750000004 0.621 3.8248593750000004 0.3450000000000001 C 3.8248593750000004 0.15450000000000008 3.6718593750000004 0.02850000000000008 3.337359375 0.02850000000000008 C 2.8828593750000002 0.02850000000000008 2.4928593750000005 0.27 2.4883593750000004 0.5145000000000001 C 2.4853593750000003 0.6345000000000001 2.5723593750000004 0.6915 2.6653593750000004 0.6915 C 2.7388593750000005 0.6915 2.7898593750000003 0.6555 2.7898593750000003 0.645 C 2.7898593750000003 0.6405000000000001 2.7868593750000006 0.6375000000000001 2.7823593750000004 0.6375000000000001 C 2.7718593750000005 0.6375000000000001 2.7358593750000004 0.663 2.6803593750000005 0.663 C 2.5918593750000003 0.663 2.530359375 0.6105 2.530359375 0.5130000000000001 C 2.530359375 0.2955000000000001 2.9128593750000005 0.06600000000000006 3.337359375 0.06600000000000006 C 3.641859375 0.06600000000000006 3.7858593750000002 0.17700000000000005 3.7858593750000002 0.34650000000000003 C 3.7858593750000002 0.6045 3.4003593750000003 0.7635000000000001 3.2743593750000004 0.7635000000000001 C 3.2563593750000006 0.7635000000000001 3.2113593750000002 0.7530000000000001 3.1858593750000006 0.7530000000000001 C 3.1528593750000002 0.7530000000000001 3.1318593750000003 0.7665000000000001 3.1318593750000003 0.7845000000000001 C 3.1318593750000003 0.801 3.1453593750000004 0.8160000000000001 3.1858593750000006 0.8160000000000001 C 3.221859375 0.8160000000000001 3.2743593750000004 0.798 3.2983593750000004 0.798 C 3.3298593750000003 0.798 3.5068593750000003 0.8535 3.5068593750000003 0.9990000000000001 C 3.5068593750000003 1.1835 3.2998593750000005 1.3455000000000001 3.1003593750000005 1.3455000000000001 C 2.9923593750000004 1.3455000000000001 2.9443593750000003 1.2930000000000001 2.9443593750000003 1.242 C 2.9443593750000003 1.125 3.1438593750000003 1.056 3.3643593750000003 1.056 Z M 4.1037927246093755 0.9915 C 4.159292724609376 0.9915 4.225292724609376 0.9465 4.309292724609375 0.8550000000000001 C 4.309292724609375 0.8550000000000001 4.316792724609376 0.8460000000000001 4.316792724609376 0.8400000000000001 C 4.316792724609376 0.8325 4.310792724609375 0.8265 4.301792724609376 0.8265 C 4.295792724609376 0.8265 4.288292724609375 0.8355 4.288292724609375 0.8355 C 4.210292724609375 0.9225000000000001 4.153292724609376 0.9600000000000001 4.111292724609376 0.9600000000000001 C 4.072292724609375 0.9600000000000001 4.046792724609375 0.9345000000000001 4.046792724609375 0.879 C 4.046792724609375 0.8265 4.076792724609375 0.7905000000000001 4.076792724609375 0.7815000000000001 C 4.076792724609375 0.7695000000000001 4.066292724609376 0.762 4.0572927246093755 0.762 C 4.043792724609376 0.762 4.015292724609376 0.8085 3.9747927246093755 0.8565 C 3.9252927246093754 0.9165000000000001 3.8247927246093756 1.0110000000000001 3.7617927246093754 1.0110000000000001 C 3.7377927246093754 1.0110000000000001 3.7227927246093757 0.9990000000000001 3.7227927246093757 0.9675 C 3.7227927246093757 0.8445 3.9072927246093756 0.651 4.072292724609375 0.651 C 4.117292724609375 0.651 4.129292724609376 0.681 4.129292724609376 0.7020000000000001 C 4.129292724609376 0.7170000000000001 4.124792724609375 0.7245 4.124792724609375 0.732 C 4.124792724609375 0.738 4.1277927246093755 0.7410000000000001 4.133792724609376 0.7410000000000001 C 4.142792724609375 0.7410000000000001 4.160792724609376 0.72 4.160792724609376 0.6930000000000001 C 4.160792724609376 0.6555 4.129292724609376 0.6180000000000001 4.058792724609376 0.6180000000000001 C 3.8952927246093756 0.6180000000000001 3.6822927246093755 0.8205 3.6822927246093755 0.9675 C 3.6822927246093755 1.0185 3.7167927246093755 1.0455 3.7572927246093757 1.0455 C 3.8337927246093755 1.0455 3.9477927246093754 0.936 4.006292724609375 0.8685 C 4.006292724609375 0.9405000000000001 4.046792724609375 0.9915 4.1037927246093755 0.9915 Z M 4.303271484375001 0.8355 C 4.303271484375001 0.8355 4.295771484375001 0.8445 4.295771484375001 0.8505 C 4.295771484375001 0.8565 4.300271484375001 0.8625 4.309271484375001 0.8625 C 4.316771484375001 0.8625 4.324271484375001 0.8550000000000001 4.324271484375001 0.8550000000000001 C 4.379771484375001 0.792 4.445771484375001 0.7065000000000001 4.468271484375001 0.675 C 4.477271484375001 0.663 4.480271484375001 0.6585000000000001 4.486271484375001 0.6585000000000001 C 4.495271484375001 0.6585000000000001 4.522271484375001 0.675 4.552271484375001 0.6960000000000001 C 4.562771484375001 0.7035 4.570271484375001 0.7080000000000001 4.570271484375001 0.7170000000000001 C 4.570271484375001 0.774 4.445771484375001 0.8640000000000001 4.445771484375001 0.9570000000000001 C 4.445771484375001 1.0035 4.481771484375001 1.032 4.523771484375001 1.032 C 4.603271484375001 1.032 4.705271484375001 0.9465 4.789271484375001 0.8550000000000001 C 4.789271484375001 0.8550000000000001 4.796771484375001 0.8460000000000001 4.796771484375001 0.8400000000000001 C 4.796771484375001 0.8325 4.790771484375001 0.8265 4.7832714843750015 0.8265 C 4.775771484375001 0.8265 4.768271484375001 0.8355 4.768271484375001 0.8355 C 4.6902714843750015 0.9225000000000001 4.600271484375001 1.0005000000000002 4.532771484375001 1.0005000000000002 C 4.504271484375001 1.0005000000000002 4.484771484375001 0.9825 4.484771484375001 0.9540000000000001 C 4.484771484375001 0.867 4.615271484375001 0.7725000000000001 4.615271484375001 0.7080000000000001 C 4.615271484375001 0.6960000000000001 4.610771484375001 0.6885000000000001 4.594271484375001 0.681 C 4.564271484375001 0.6645000000000001 4.504271484375001 0.6285000000000001 4.504271484375001 0.6180000000000001 C 4.504271484375001 0.5940000000000001 4.568771484375001 0.5355000000000001 4.568771484375001 0.5130000000000001 C 4.568771484375001 0.501 4.552271484375001 0.48750000000000004 4.540271484375001 0.48750000000000004 C 4.508771484375001 0.48750000000000004 4.480271484375001 0.5835000000000001 4.462271484375001 0.6195 C 4.438271484375001 0.666 4.354271484375001 0.7785000000000001 4.303271484375001 0.8355 Z" fill="#ffffff" fill-rule="nonzero"></path></g><g><path d=" M 2.4452595520019536 1.6062703124999997 Q 2.4382283020019533 1.5983015624999997 2.4288533020019534 1.5919734374999999 Q 2.4194783020019535 1.5856453124999998 2.4077595520019535 1.5809578125 Q 2.3960408020019535 1.5762703124999997 2.3826814270019536 1.5734578124999998 Q 2.3693220520019533 1.5706453124999997 2.3543220520019537 1.5706453124999997 Q 2.3107283020019533 1.5706453124999997 2.2903376770019537 1.5872859375 Q 2.2699470520019536 1.6039265624999999 2.2699470520019536 1.6325203124999998 Q 2.2699470520019536 1.6522078124999997 2.2795564270019533 1.6634578124999997 Q 2.2891658020019534 1.6747078125 2.3097908020019533 1.6817390624999997 Q 2.3304158020019536 1.6887703124999998 2.3622908020019535 1.6962703124999998 Q 2.3979158020019535 1.7037703124999997 2.4236970520019536 1.7140828124999998 Q 2.4494783020019533 1.7243953124999998 2.4635408020019534 1.7419734374999998 Q 2.4776033020019534 1.7595515624999998 2.4776033020019534 1.7895515624999998 Q 2.4776033020019534 1.8125203124999998 2.4686970520019536 1.8293953124999998 Q 2.4597908020019537 1.8462703124999997 2.4438533020019535 1.8575203124999997 Q 2.4279158020019533 1.8687703124999997 2.4058845520019534 1.8741609374999997 Q 2.3838533020019534 1.8795515624999999 2.3576033020019533 1.8795515624999999 Q 2.3318220520019537 1.8795515624999999 2.3081501770019535 1.8741609374999997 Q 2.2844783020019537 1.8687703124999997 2.2633845520019533 1.8582234374999997 Q 2.2422908020019534 1.8476765624999998 2.2240095520019536 1.8312703124999998 L 2.2404158020019533 1.8045515624999997 Q 2.2493220520019537 1.8139265624999998 2.2617439270019535 1.8221296874999997 Q 2.2741658020019533 1.8303328124999998 2.2894001770019536 1.8368953124999998 Q 2.3046345520019536 1.8434578124999998 2.3222126770019536 1.8469734374999998 Q 2.3397908020019536 1.8504890624999997 2.3585408020019534 1.8504890624999997 Q 2.3983845520019536 1.8504890624999997 2.4206501770019533 1.8359578124999998 Q 2.4429158020019535 1.8214265624999997 2.4429158020019535 1.7928328124999997 Q 2.4429158020019535 1.7722078124999998 2.4316658020019535 1.7597859374999998 Q 2.4204158020019535 1.7473640624999998 2.3979158020019535 1.7393953124999997 Q 2.3754158020019536 1.7314265624999998 2.3426033020019537 1.7239265624999998 Q 2.3079158020019537 1.7159578124999997 2.2840095520019537 1.7061140624999998 Q 2.2601033020019536 1.6962703124999998 2.2481501770019534 1.6800984374999999 Q 2.2361970520019536 1.6639265624999997 2.2361970520019536 1.6372078124999998 Q 2.2361970520019536 1.6062703124999997 2.2514314270019535 1.5849421874999998 Q 2.2666658020019534 1.5636140624999997 2.2933845520019536 1.5525984374999997 Q 2.3201033020019537 1.5415828124999997 2.3547908020019537 1.5415828124999997 Q 2.3768220520019536 1.5415828124999997 2.3958064270019537 1.5460359374999997 Q 2.4147908020019533 1.5504890624999998 2.4309626770019537 1.5589265624999997 Q 2.4471345520019536 1.5673640624999998 2.4611970520019533 1.5800203124999999 L 2.4452595520019536 1.6062703124999997 Z M 2.539944534301758 1.8767390624999998 L 2.539944534301758 1.5439265624999998 L 2.5727570343017585 1.5439265624999998 L 2.5727570343017585 1.8767390624999998 L 2.539944534301758 1.8767390624999998 Z M 2.6936878967285165 1.6043953125 L 2.6936878967285165 1.8767390624999998 L 2.660875396728516 1.8767390624999998 L 2.660875396728516 1.5439265624999998 L 2.6880628967285163 1.5439265624999998 L 2.906500396728516 1.8214265624999997 L 2.906500396728516 1.5443953124999998 L 2.9393128967285165 1.5443953124999998 L 2.9393128967285165 1.8767390624999998 L 2.908844146728516 1.8767390624999998 L 2.6936878967285165 1.6043953125 Z M 3.005393829345704 1.7079890624999998 Q 3.005393829345704 1.6775203124999998 3.015940704345704 1.6482234374999998 Q 3.0264875793457042 1.6189265624999998 3.046643829345704 1.5947859374999998 Q 3.066800079345704 1.5706453124999997 3.096331329345704 1.5563484374999998 Q 3.125862579345704 1.5420515624999998 3.163362579345704 1.5420515624999998 Q 3.207893829345704 1.5420515624999998 3.239534454345704 1.5624421874999999 Q 3.271175079345704 1.5828328124999997 3.286175079345704 1.6147078124999998 L 3.2603938293457038 1.6306453124999998 Q 3.249612579345704 1.6086140624999998 3.233206329345704 1.5957234374999998 Q 3.216800079345704 1.5828328124999997 3.198284454345704 1.5772078124999998 Q 3.179768829345704 1.5715828124999998 3.161487579345704 1.5715828124999998 Q 3.131487579345704 1.5715828124999998 3.1085188293457042 1.5835359374999998 Q 3.085550079345704 1.5954890624999998 3.069846954345704 1.6154109374999999 Q 3.054143829345704 1.6353328124999997 3.046175079345704 1.6599421874999998 Q 3.0382063293457042 1.6845515624999998 3.0382063293457042 1.7098640625 Q 3.0382063293457042 1.7375203124999998 3.047581329345704 1.7628328124999997 Q 3.056956329345704 1.7881453124999998 3.073831329345704 1.8075984374999998 Q 3.090706329345704 1.8270515625 3.113440704345704 1.8385359374999999 Q 3.136175079345704 1.8500203124999999 3.162893829345704 1.8500203124999999 Q 3.181643829345704 1.8500203124999999 3.201331329345704 1.8434578124999998 Q 3.221018829345704 1.8368953124999998 3.238128204345704 1.8233015624999998 Q 3.255237579345704 1.8097078124999997 3.265550079345704 1.7881453124999998 L 3.292737579345704 1.8022078124999998 Q 3.282425079345704 1.8270515625 3.2608625793457042 1.8443953124999999 Q 3.239300079345704 1.8617390624999999 3.212815704345704 1.8706453124999998 Q 3.186331329345704 1.8795515624999999 3.161018829345704 1.8795515624999999 Q 3.126800079345704 1.8795515624999999 3.098206329345704 1.8647859374999998 Q 3.069612579345704 1.8500203124999999 3.048753204345704 1.8254109374999998 Q 3.027893829345704 1.8008015624999998 3.016643829345704 1.7700984374999997 Q 3.005393829345704 1.7393953124999997 3.005393829345704 1.7079890624999998 Z M 3.5772566986083993 1.8476765624999998 L 3.5772566986083993 1.8767390624999998 L 3.3536629486083993 1.8767390624999998 L 3.3536629486083993 1.5439265624999998 L 3.5730379486083996 1.5439265624999998 L 3.5730379486083996 1.5729890624999998 L 3.3864754486083997 1.5729890624999998 L 3.3864754486083997 1.6929890624999997 L 3.5491316986083996 1.6929890624999997 L 3.5491316986083996 1.7206453124999999 L 3.3864754486083997 1.7206453124999999 L 3.3864754486083997 1.8476765624999998 L 3.5772566986083993 1.8476765624999998 Z M 3.916580886840822 1.8476765624999998 L 3.916580886840822 1.8767390624999998 L 3.7576746368408216 1.8767390624999998 L 3.7576746368408216 1.8476765624999998 L 3.824237136840822 1.8476765624999998 L 3.824237136840822 1.6470515624999997 Q 3.8204871368408218 1.6526765624999997 3.811580886840822 1.6592390624999998 Q 3.8026746368408215 1.6658015624999998 3.7911902618408218 1.6714265624999998 Q 3.7797058868408215 1.6770515624999998 3.7684558868408216 1.6808015624999997 Q 3.7572058868408216 1.6845515624999998 3.7478308868408217 1.6845515624999998 L 3.7478308868408217 1.6536140624999998 Q 3.7586121368408216 1.6536140624999998 3.7712683868408217 1.6475203124999998 Q 3.7839246368408217 1.6414265624999997 3.7956433868408217 1.6334578124999997 Q 3.8073621368408217 1.6254890624999998 3.8153308868408216 1.6184578124999998 Q 3.823299636840822 1.6114265624999997 3.824237136840822 1.6090828124999998 L 3.857049636840822 1.6090828124999998 L 3.857049636840822 1.8476765624999998 L 3.916580886840822 1.8476765624999998 Z M 3.948445816040041 1.7234578124999997 Q 3.948445816040041 1.7548640624999998 3.9636801910400408 1.7804109374999997 Q 3.9789145660400407 1.8059578124999998 4.00516456604004 1.8209578124999999 Q 4.0314145660400404 1.8359578124999998 4.06282081604004 1.8359578124999998 Q 4.08438331604004 1.8359578124999998 4.1026645660400405 1.8284578124999997 Q 4.120945816040041 1.8209578124999999 4.13500831604004 1.8071296874999998 Q 4.149070816040041 1.7933015624999997 4.15563331604004 1.7754890624999997 Q 4.155164566040041 1.8214265624999997 4.1436801910400405 1.8537703124999998 Q 4.13219581604004 1.8861140624999997 4.111805191040041 1.9034578124999997 Q 4.091414566040041 1.9208015624999997 4.063289566040041 1.9208015624999997 Q 4.03750831604004 1.9208015624999997 4.01594581604004 1.9062703124999998 Q 3.994383316040041 1.8917390624999997 3.9845395660400404 1.8683015624999997 L 3.9639145660400406 1.8870515624999997 Q 3.9775083160400406 1.9156453124999997 4.0039926910400405 1.9322859374999997 Q 4.03047706604004 1.9489265624999998 4.063289566040041 1.9489265624999998 Q 4.09985206604004 1.9489265624999998 4.127508316040041 1.9268953124999997 Q 4.155164566040041 1.9048640624999997 4.170633316040041 1.8605671874999998 Q 4.186102066040041 1.8162703124999997 4.186102066040041 1.7483015624999998 Q 4.186102066040041 1.7047078124999997 4.170867691040041 1.6735359374999998 Q 4.15563331604004 1.6423640624999998 4.128680191040041 1.6257234374999998 Q 4.1017270660400404 1.6090828124999998 4.0665708160400404 1.6090828124999998 Q 4.033758316040041 1.6090828124999998 4.006805191040041 1.6245515624999998 Q 3.9798520660400407 1.6400203125 3.964148941040041 1.6658015624999998 Q 3.948445816040041 1.6915828124999999 3.948445816040041 1.7234578124999997 Z M 4.066102066040041 1.6372078124999998 Q 4.089539566040041 1.6372078124999998 4.1094614410400405 1.6489265624999998 Q 4.129383316040041 1.6606453124999998 4.141102066040041 1.6803328124999997 Q 4.152820816040041 1.7000203124999997 4.152820816040041 1.7234578124999997 Q 4.152820816040041 1.7468953124999997 4.141102066040041 1.7665828124999998 Q 4.129383316040041 1.7862703124999997 4.10969581604004 1.7979890624999997 Q 4.0900083160400404 1.8097078124999997 4.066102066040041 1.8097078124999997 Q 4.042664566040041 1.8097078124999997 4.02274269104004 1.7979890624999997 Q 4.002820816040041 1.7862703124999997 3.9908676910400405 1.7665828124999998 Q 3.9789145660400407 1.7468953124999997 3.9789145660400407 1.7234578124999997 Q 3.9789145660400407 1.6995515624999997 3.9908676910400405 1.6800984374999999 Q 4.002820816040041 1.6606453124999998 4.0225083160400406 1.6489265624999998 Q 4.04219581604004 1.6372078124999998 4.066102066040041 1.6372078124999998 Z M 4.227820129394533 1.7234578124999997 Q 4.227820129394533 1.7548640624999998 4.243054504394533 1.7804109374999997 Q 4.258288879394533 1.8059578124999998 4.284538879394533 1.8209578124999999 Q 4.310788879394533 1.8359578124999998 4.342195129394533 1.8359578124999998 Q 4.363757629394533 1.8359578124999998 4.382038879394533 1.8284578124999997 Q 4.400320129394533 1.8209578124999999 4.414382629394533 1.8071296874999998 Q 4.428445129394533 1.7933015624999997 4.435007629394533 1.7754890624999997 Q 4.434538879394533 1.8214265624999997 4.423054504394533 1.8537703124999998 Q 4.411570129394533 1.8861140624999997 4.391179504394533 1.9034578124999997 Q 4.370788879394533 1.9208015624999997 4.342663879394533 1.9208015624999997 Q 4.316882629394533 1.9208015624999997 4.295320129394533 1.9062703124999998 Q 4.273757629394533 1.8917390624999997 4.263913879394533 1.8683015624999997 L 4.243288879394533 1.8870515624999997 Q 4.256882629394533 1.9156453124999997 4.283367004394533 1.9322859374999997 Q 4.309851379394533 1.9489265624999998 4.342663879394533 1.9489265624999998 Q 4.379226379394533 1.9489265624999998 4.406882629394533 1.9268953124999997 Q 4.434538879394533 1.9048640624999997 4.450007629394533 1.8605671874999998 Q 4.465476379394533 1.8162703124999997 4.465476379394533 1.7483015624999998 Q 4.465476379394533 1.7047078124999997 4.450242004394533 1.6735359374999998 Q 4.435007629394533 1.6423640624999998 4.408054504394533 1.6257234374999998 Q 4.381101379394533 1.6090828124999998 4.345945129394533 1.6090828124999998 Q 4.313132629394533 1.6090828124999998 4.286179504394533 1.6245515624999998 Q 4.259226379394533 1.6400203125 4.243523254394533 1.6658015624999998 Q 4.227820129394533 1.6915828124999999 4.227820129394533 1.7234578124999997 Z M 4.345476379394533 1.6372078124999998 Q 4.368913879394533 1.6372078124999998 4.388835754394533 1.6489265624999998 Q 4.408757629394533 1.6606453124999998 4.420476379394533 1.6803328124999997 Q 4.432195129394533 1.7000203124999997 4.432195129394533 1.7234578124999997 Q 4.432195129394533 1.7468953124999997 4.420476379394533 1.7665828124999998 Q 4.408757629394533 1.7862703124999997 4.389070129394533 1.7979890624999997 Q 4.369382629394533 1.8097078124999997 4.345476379394533 1.8097078124999997 Q 4.322038879394533 1.8097078124999997 4.302117004394533 1.7979890624999997 Q 4.282195129394533 1.7862703124999997 4.270242004394533 1.7665828124999998 Q 4.258288879394533 1.7468953124999997 4.258288879394533 1.7234578124999997 Q 4.258288879394533 1.6995515624999997 4.270242004394533 1.6800984374999999 Q 4.282195129394533 1.6606453124999998 4.301882629394533 1.6489265624999998 Q 4.321570129394533 1.6372078124999998 4.345476379394533 1.6372078124999998 Z M 4.744850692749026 1.7843953124999998 Q 4.744850692749026 1.8134578124999998 4.728678817749025 1.8350203124999998 Q 4.712506942749025 1.8565828124999997 4.686022567749025 1.8685359374999997 Q 4.659538192749025 1.8804890624999997 4.628131942749025 1.8804890624999997 Q 4.594850692749025 1.8804890624999997 4.569069442749026 1.8671296874999999 Q 4.543288192749025 1.8537703124999998 4.528522567749025 1.8317390624999998 Q 4.513756942749025 1.8097078124999997 4.513756942749025 1.7825203124999998 Q 4.513756942749025 1.7614265624999998 4.523835067749025 1.7443171874999999 Q 4.533913192749026 1.7272078124999997 4.549147567749025 1.7154890624999997 Q 4.5643819427490255 1.7037703124999997 4.580319442749025 1.6986140624999997 Q 4.565788192749025 1.6925203124999997 4.553131942749025 1.6824421874999997 Q 4.540475692749025 1.6723640624999998 4.532975692749026 1.6587703124999997 Q 4.525475692749025 1.6451765624999997 4.525475692749025 1.6287703124999997 Q 4.525475692749025 1.6081453124999998 4.534616317749025 1.5924421874999997 Q 4.543756942749026 1.5767390624999997 4.558756942749025 1.5657234374999998 Q 4.573756942749025 1.5547078124999998 4.592272567749025 1.5493171874999998 Q 4.610788192749025 1.5439265624999998 4.629538192749026 1.5439265624999998 Q 4.647819442749025 1.5439265624999998 4.666335067749025 1.5493171874999998 Q 4.684850692749025 1.5547078124999998 4.700085067749026 1.5654890624999998 Q 4.715319442749025 1.5762703124999997 4.724460067749026 1.5919734374999999 Q 4.733600692749025 1.6076765624999998 4.733600692749025 1.6283015625 Q 4.733600692749025 1.6447078124999999 4.725866317749025 1.6585359374999997 Q 4.718131942749025 1.6723640624999998 4.705475692749025 1.6824421874999997 Q 4.692819442749025 1.6925203124999997 4.677819442749025 1.6986140624999997 Q 4.696100692749026 1.7047078124999997 4.711335067749025 1.7171296874999997 Q 4.7265694427490255 1.7295515624999998 4.735710067749025 1.7464265624999997 Q 4.744850692749026 1.7633015624999997 4.744850692749026 1.7843953124999998 Z M 4.712506942749025 1.7820515624999997 Q 4.712506942749025 1.7651765624999998 4.705241317749025 1.7522859374999997 Q 4.697975692749026 1.7393953124999997 4.6855538177490255 1.7304890624999998 Q 4.673131942749025 1.7215828125 4.658366317749025 1.7168953124999997 Q 4.643600692749025 1.7122078124999998 4.628600692749026 1.7122078124999998 Q 4.608444442749025 1.7122078124999998 4.589460067749026 1.7208796874999999 Q 4.570475692749025 1.7295515624999998 4.5585225677490255 1.7452546874999997 Q 4.546569442749026 1.7609578124999998 4.546569442749026 1.7825203124999998 Q 4.546569442749026 1.7989265624999997 4.553835067749025 1.8115828124999998 Q 4.561100692749025 1.8242390624999998 4.573288192749025 1.8333796874999997 Q 4.585475692749025 1.8425203124999998 4.600241317749026 1.8472078124999998 Q 4.615006942749026 1.8518953124999997 4.630006942749025 1.8518953124999997 Q 4.650163192749026 1.8518953124999997 4.669147567749025 1.8432234374999998 Q 4.688131942749026 1.8345515624999997 4.700319442749025 1.8186140624999998 Q 4.712506942749025 1.8026765624999999 4.712506942749025 1.7820515624999997 Z M 4.557350692749026 1.6301765624999998 Q 4.557350692749026 1.6479890624999998 4.5683663177490255 1.6608796874999998 Q 4.579381942749025 1.6737703124999999 4.596256942749025 1.6803328124999997 Q 4.613131942749026 1.6868953124999997 4.629069442749025 1.6868953124999997 Q 4.645944442749025 1.6868953124999997 4.662585067749025 1.6800984374999999 Q 4.679225692749025 1.6733015624999998 4.690241317749026 1.6604109374999998 Q 4.701256942749025 1.6475203124999998 4.701256942749025 1.6292390624999997 Q 4.701256942749025 1.6114265624999997 4.690944442749025 1.5987703124999997 Q 4.6806319427490255 1.5861140624999999 4.6639913177490255 1.5795515624999998 Q 4.647350692749026 1.5729890624999998 4.628600692749026 1.5729890624999998 Q 4.610788192749025 1.5729890624999998 4.594147567749025 1.5797859374999998 Q 4.577506942749025 1.5865828124999997 4.567428817749025 1.5994734374999997 Q 4.557350692749026 1.6123640624999998 4.557350692749026 1.6301765624999998 Z" fill="#ffffff" fill-rule="nonzero"></path></g><g clip-path="url(&quot;#SvgjsClipPath1010&quot;)"><g clip-path="url(&quot;#SvgjsClipPath1008&quot;)"><path d=" M 7.059747750027092 0.6585665370343488 C 7.053668438124826 0.6585631143558758 7.0476944820302165 0.6569790091442711 7.042412235592571 0.6539697039932839 L 6.299828918399567 0.23078837072984992 C 6.283023051337935 0.22119723146187015 6.2771648353984855 0.19980428218299381 6.286739631096195 0.1829890983452198 C 6.3466814413182835 0.07739313319666223 6.44677641044497 0.000523456597545012 6.564263686897421 -0.030140338668887733 C 6.682396114504581 -0.061634696341389655 6.808189704102841 -0.045138553789151846 6.9142073412015215 0.015750079317333757 C 7.020673519946398 0.07586476819275055 7.099009257024856 0.17568575838731168 7.132089436105545 0.29339100375519617 C 7.165602014352406 0.4101126369977245 7.150498169347095 0.5354253752324828 7.090211507977203 0.6408414604777012 C 7.085613310652167 0.648928238250351 7.0779897737929325 0.6548560987125862 7.069019328533649 0.6573199382435515 C 7.06599689808626 0.65814053735861 7.062879589993873 0.6585596712197711 7.059747750027092 0.6585665370343488 Z M 6.366327172646153 0.1880144497206206 L 7.045256039084075 0.575044418050937 C 7.082779878978857 0.49266875556192113 7.089686505067627 0.399608875641844 7.064734145190281 0.31259641637591523 C 7.036588186439139 0.2126432938839803 6.9700376483114335 0.12788659002268501 6.879614224756897 0.07683342006639662 C 6.789577113624605 0.0251195612704624 6.682740861757659 0.011115595892699809 6.582417281788404 0.037877207853984546 C 6.4948511673169085 0.06064484649230903 6.418265635789747 0.1138748985221896 6.366405085070579 0.1880144497206206 Z" fill="#8c1627" transform="matrix(1,0,0,1,0,0)" fill-rule="nonzero"></path></g><g clip-path="url(&quot;#SvgjsClipPath1008&quot;)"><path d=" M 6.7068044673826375 0.44765760411634853 C 6.689392723514802 0.44764392500574335 6.6746291171981635 0.43485432897189075 6.67213343851359 0.4176223645005788 C 6.669350259039971 0.39846408794697813 6.682621663218861 0.38067587209616577 6.701779116007238 0.37788702804391777 L 7.097535275873131 0.3201928777573358 C 7.116693552426732 0.31740969828371624 7.134481768277541 0.3306811024626064 7.137270612329791 0.349838555250982 C 7.138619037783522 0.35903906837129757 7.13625728366263 0.36839840832580434 7.13070492483612 0.37585756406510024 C 7.125152566009612 0.3833167198043965 7.116864438292545 0.38826465531904686 7.107663891048358 0.38961284791985457 L 6.7118687749702515 0.44726804199422476 C 6.710193406565802 0.4475296963955033 6.708500143302523 0.44765994741575554 6.7068044673826375 0.44765760411634853 Z" fill="#8c1627" transform="matrix(1,0,0,1,0,0)" fill-rule="nonzero"></path></g><g clip-path="url(&quot;#SvgjsClipPath1008&quot;)"><path d=" M 6.702441371614846 0.44516440653475425 C 6.69636205971258 0.445160983856281 6.690388103617971 0.4435768786446763 6.685105857180325 0.4405675734936894 C 6.668299990118691 0.43097643422571 6.662441774179242 0.40958348494683366 6.672016569876952 0.39276830110905964 L 6.874588873381496 0.03702017118531119 C 6.884180012649474 0.020214304123681734 6.905572961928351 0.014356088184233694 6.922388145766124 0.023930883881941034 C 6.930476196717143 0.028530514462905485 6.936404220571423 0.036156479714995735 6.938866605736744 0.04512920666755732 C 6.941328990902065 0.054101933620118905 6.940123771294292 0.06368547464314771 6.935516389281707 0.07176911247878259 L 6.732944085777163 0.42743932997810674 C 6.726706129215976 0.4384053627391031 6.715057467567666 0.44517438068288495 6.702441371614844 0.44516440653475425 Z" fill="#8c1627" transform="matrix(1,0,0,1,0,0)" fill-rule="nonzero"></path></g><g clip-path="url(&quot;#SvgjsClipPath1008&quot;)"><path d=" M 6.702519284039272 0.44516440653475425 C 6.688733996995326 0.4451801024180621 6.676218830219934 0.4371161277235653 6.6705362338128795 0.4245565702743879 L 6.498154994772955 0.04325316513929699 C 6.49432412961673 0.0347762711865551 6.494019052354998 0.025124447812950035 6.4973069257168365 0.01642254298195174 C 6.500594799078675 0.007720638150953786 6.507206078068352 0.0006820476179303855 6.515685290268542 -0.0031436836056862247 C 6.52415735947366 -0.006977036642242931 6.5338052547822905 -0.007287747768368998 6.542506419277901 -0.004007459893869636 C 6.551207583773509 -0.0007271720193702813 6.558249214815007 0.005875392449499049 6.56208213901352 0.014347655677686866 L 6.734424421841238 0.39584584187384037 C 6.738257774877793 0.40431791107896214 6.738568486003919 0.4139658063875917 6.735288198129418 0.42266697088320154 C 6.73200791025492 0.4313681353788114 6.725405345786051 0.4384097664203102 6.716933082557862 0.4422426906188236 C 6.712389075953537 0.44422467352516826 6.707476410987425 0.4452204839912717 6.702519284039272 0.44516440653475386 Z" fill="#8c1627" transform="matrix(1,0,0,1,0,0)" fill-rule="nonzero"></path></g><g clip-path="url(&quot;#SvgjsClipPath1008&quot;)"><path d=" M 5.939990386193513 0.4737582662986649 C 5.1682678222656255 0.4737582662986649 5.1682678222656255 0.3949888052051674 5.1682678222656255 0.36912188029612547 C 5.1682678222656255 0.3432549553870839 5.1682678222656255 0.2644854942935864 5.939990386193513 0.2644854942935864 C 6.7117129501214 0.2644854942935864 6.7118687749702515 0.3431770429626592 6.7118687749702515 0.3690439678717008 C 6.7118687749702515 0.3949108927807423 6.7118687749702515 0.4737582662986649 5.939990386193513 0.4737582662986649 Z M 5.305549514102167 0.3690439678717008 C 5.516021962368161 0.3952868720251122 5.728069482283456 0.40680694907391673 5.94014621104237 0.40352021567968627 C 6.152209967358177 0.4068058954917456 6.364244459981654 0.39528581900013926 6.574703951770342 0.36904396787170113 C 6.36424459544355 0.34280060154019104 6.15220999685452 0.3312805192913549 5.94014621104237 0.3345677200637163 C 5.728069482283449 0.3312809866694852 5.516021962368157 0.3428010637182897 5.305549514102162 0.3690439678717008 Z M 6.6500063099769395 0.38852207397790683 L 6.6500063099769395 0.38852207397790683 Z" fill="#8c1627" transform="matrix(1,0,0,1,0,0)" fill-rule="nonzero"></path></g><g clip-path="url(&quot;#SvgjsClipPath1008&quot;)"><path d=" M 6.39550537559325 1.9225397984782773 L 5.485760951796785 1.914748556035795 C 5.401654489630187 1.909606336023756 5.34162296661086 1.88592095899861 5.30562742652659 1.8441598995069035 C 5.284085940021754 1.819983799312117 5.272116594488429 1.7887720684248682 5.271969259175066 1.7563915533923389 L 5.169397552419784 0.3698620483281613 C 5.167967688500013 0.3505526957793166 5.182460938511063 0.3337398281371353 5.201770164768298 0.3323082597553961 C 5.221079517317144 0.330878395835625 5.237892384959327 0.34537164584667585 5.239323953341065 0.3646808721039107 L 5.342324178430684 1.7559630350580022 L 5.34209044115741 1.7587289261250838 C 5.341817747671923 1.7659358253843802 5.343298083735996 1.835784313881235 5.488254149378379 1.8446663302656652 L 6.393713389831479 1.8524575727081478 C 6.440416760928779 1.8538736026253604 6.48588451420624 1.8373233962039115 6.520749597856155 1.8062165488120145 C 6.530729782161696 1.7953791788489855 6.536601139188344 1.7813899126939416 6.53734494425864 1.766675993416416 L 6.537111206985369 1.7639101023493344 L 6.537111206985369 1.7611831674944658 L 6.639838738589502 0.37352393227612807 C 6.641393600616436 0.35429321314921147 6.658102376452257 0.33987473680490604 6.677353570950053 0.34115131992761305 C 6.696646440790829 0.3425832555085901 6.7111334657102235 0.3593714685018236 6.709726183298569 0.3786661522881661 L 6.6073492576043495 1.7643775768958836 C 6.607210352477657 1.7967409099668337 6.595254778287882 1.827939001595309 6.5737300464650374 1.8521069667982375 C 6.526254637841323 1.8986641276099374 6.461982140587316 1.92406405657939 6.39550537559325 1.9225397984782773 Z" fill="#8c1627" transform="matrix(1,0,0,1,0,0)" fill-rule="nonzero"></path></g><g clip-path="url(&quot;#SvgjsClipPath1008&quot;)"><path d=" M 5.794138327670243 1.6031767707609212 C 5.782685201279794 1.6027092962143725 5.548207759973284 1.5926975496757825 5.454868675512344 1.5746218672092231 C 5.269398149169049 1.538587370912742 5.2314158422619474 1.3621157295905144 5.237259274093808 1.2738409527171881 C 5.238891870613081 1.2547019435822593 5.255352278169137 1.2402711369578805 5.274540369181087 1.2411566906709743 C 5.293843888080204 1.242427736997226 5.3084701409840385 1.259093646146292 5.3072246312273 1.2783988295460404 C 5.30671820046854 1.2867744151717093 5.2977193154474715 1.4726345036371278 5.468230656301199 1.5057472840176782 C 5.556427520750101 1.5228880173911397 5.793164422364931 1.5330166325663672 5.795462838885462 1.5330166325663672 L 6.0456396337135745 1.5327049828686676 L 6.0456396337135745 1.5327049828686676 C 6.065003063438056 1.532704982868668 6.080700224704745 1.5484021441353604 6.080700224704745 1.5677655738598384 C 6.080700224704745 1.5871290035843169 6.065003063438056 1.6028261648510091 6.0456396337135745 1.6028261648510096 Z" fill="#8c1627" transform="matrix(1,0,0,1,0,0)" fill-rule="nonzero"></path></g><g clip-path="url(&quot;#SvgjsClipPath1008&quot;)"><path d=" M 6.056742154194113 1.6037611139441075 C 6.037619549202208 1.6037641360224515 6.022021520390467 1.5884434055006977 6.021681563202943 1.569323822348335 C 6.0213341189269975 1.549974117970078 6.0367304691766535 1.534002366182213 6.056079898586502 1.5336399319617655 C 6.17447616937242 1.53236927601293 6.292646708385577 1.5229978928110932 6.409763349262995 1.505591459168829 C 6.559588941431931 1.4801140963819113 6.57217179797654 1.270997149225682 6.572288666613179 1.2688935137662116 C 6.573716407424319 1.2497572039439384 6.589919583732009 1.2351143335029167 6.609102287153908 1.2356249085368116 C 6.628413985602525 1.2366114195194235 6.643280990139887 1.2530470411826484 6.642331936171096 1.2723606166531165 C 6.6417865492001225 1.2832293998603799 6.627022144771619 1.539756057279114 6.421528125351143 1.5747387358458602 C 6.300945897202036 1.592713626644707 6.1792728598281315 1.6023974884125916 6.057365453589511 1.603722157731895 Z" fill="#8c1627" transform="matrix(1,0,0,1,0,0)" fill-rule="nonzero"></path></g><g clip-path="url(&quot;#SvgjsClipPath1008&quot;)"><path d=" M 6.4009982015152 1.4054739937829295 C 6.399907427573252 1.4054739937829295 6.398855609843517 1.4054739937829295 6.397764835901569 1.4054739937829295 C 6.38849415095316 1.4046341978795858 6.379937974858116 1.4001421714810087 6.373982320698704 1.3929880789385987 C 6.368026666539293 1.3858339863961886 6.365160471610652 1.3766051523871732 6.366015522948453 1.367335862026978 C 6.3769622185801405 1.247779246747084 6.3897008999736 1.115951424620281 6.402439581367059 0.9840846462812659 C 6.415178262760518 0.8522178679422502 6.427916944153976 0.7207016955131464 6.438824683573452 0.601222992657678 C 6.440795709231249 0.5820387079804827 6.457741007797766 0.56794935861057 6.476962815329404 0.5695126359167745 C 6.496237416953104 0.5712821251730557 6.510431714971192 0.5883362080498254 6.508673172070308 0.6076118114605139 C 6.497765432650834 0.7272073829526196 6.485026751257372 0.8590352050794228 6.472249113651702 0.9908630272062257 C 6.459471476046032 1.1226908493330288 6.446810707076996 1.2542849341865576 6.435864011445307 1.3737246808298131 C 6.434157778157298 1.3917100410013687 6.419064303136135 1.4054543785904738 6.4009982015152 1.4054739937829295 Z" fill="#8c1627" transform="matrix(1,0,0,1,0,0)" fill-rule="nonzero"></path></g><g clip-path="url(&quot;#SvgjsClipPath1008&quot;)"><path d=" M 6.373728852966512 1.6537029780004202 C 6.372426816055324 1.6537027296992073 6.371125957307696 1.6536246781743493 6.36983323174527 1.6534692407271456 C 6.360563590239907 1.6524889521183752 6.352065882433352 1.6478577320158614 6.346217966481962 1.6405990063412004 C 6.3403700505305745 1.6333402806665394 6.337653367816755 1.62405163853564 6.338668261975341 1.6147857220002204 L 6.352030242764197 1.4940214641417424 C 6.352918278482109 1.4847053760582236 6.357530504206724 1.4761425910530916 6.364820917569993 1.4702750551470394 C 6.372111330933263 1.464407519240987 6.381462152330611 1.4617324393592273 6.390752717703337 1.4628564943718128 C 6.4000223592087 1.4638367829805832 6.408520067015255 1.468468003083097 6.414367982966643 1.475726728757758 C 6.420215898918032 1.482985454432419 6.422932581631851 1.4922740965633188 6.421917687473264 1.501540013098738 L 6.4085557066844085 1.622304270957216 C 6.406683056354399 1.6401359634062609 6.39165859400994 1.653681507757081 6.373728852966512 1.6537029780004207 Z" fill="#8c1627" transform="matrix(1,0,0,1,0,0)" fill-rule="nonzero"></path></g><g clip-path="url(&quot;#SvgjsClipPath1008&quot;)"><path d=" M 6.2677679557487505 0.9154827565752076 C 6.144732443220936 0.9086418118440521 6.023290084848784 0.8843769492251431 5.907072386874026 0.8434137639822458 C 5.794767091867529 0.804835016827077 5.678207628614068 0.7799822528071491 5.55993357984922 0.7693969607786622 C 5.459587120837025 0.7651320712504881 5.360662383035945 0.7942888360760693 5.278669727675601 0.8522957803666749 C 5.271077007839398 0.8576718972176434 5.26165886441084 0.8598098854757095 5.252489117424905 0.8582389726454498 C 5.243319370438971 0.8566680598151899 5.235149938019471 0.8515170605552651 5.229779681349024 0.8439201947410061 C 5.21861061824866 0.8281156859481614 5.222359443109234 0.8062504469939266 5.238155266974692 0.7950691046266414 C 5.3329236176442905 0.728302820782028 5.4470625167500915 0.6946471809065415 5.562894251977362 0.6993147350085318 C 5.6869769776272365 0.7099018560251784 5.80929162216939 0.7356757195130424 5.927095879951206 0.7760584730669843 C 6.190245093446049 0.8543215034017204 6.417554591705474 0.9220274002268928 6.613932857468244 0.6529568424757611 C 6.619393141034227 0.6454299869466231 6.6276198669671365 0.6403805561948721 6.636803183188173 0.6389194080292343 C 6.6459864994092035 0.6374582598635962 6.655374125850277 0.6397050888056446 6.6629008162192465 0.6451656000332787 C 6.6704276717483815 0.6506258835992618 6.675477102500133 0.6588526095321712 6.67693825066577 0.6680359257532055 C 6.678399398831408 0.6772192419742398 6.67615256988936 0.6866068684153113 6.670692058661725 0.694133558784281 C 6.54762938428272 0.8630866511495133 6.410269780021753 0.9154827565752076 6.2677679557487505 0.9154827565752076 Z" fill="#8c1627" transform="matrix(1,0,0,1,0,0)" fill-rule="nonzero"></path></g></g></g><defs><clipPath id="SvgjsClipPath1010"><path d=" M 5.1682678222656255 -0.04580073597827761 h 1.9812350406988632 v 1.968340534456555 h -1.9812350406988632 Z"></path></clipPath><clipPath id="SvgjsClipPath1008"><path d=" M 5.1682678222656255 -0.04580073597827743 L 7.149502862964489 -0.04580073597827743 L 7.149502862964489 1.9225397984782773 L 5.1682678222656255 1.9225397984782773 Z"></path></clipPath></defs></svg>